<?xml version="1.0" encoding="utf-8"?>
<!-- Generator: Adobe Illustrator 28.2.0, SVG Export Plug-In . SVG Version: 6.00 Build 0)  -->
<svg version="1.1" id="Layer_2" xmlns="http://www.w3.org/2000/svg" xmlns:xlink="http://www.w3.org/1999/xlink" x="0px" y="0px"
	 viewBox="960 660 920 400" style="enable-background:new 0 0 2848 1720;" xml:space="preserve">
<style type="text/css">
	.st0{fill:#FFFFFF;}
	.st1{fill:#FFFFFF;}
</style>
<g>
	<g>
		<g>
			<path class="st0" d="M1380.29,837.95c-13.58,8.95-29.8,14.15-47.24,14.15h-41.16c-47.53,0-86.2-38.67-86.2-86.2
				c0-47.53,38.67-86.2,86.2-86.2h18.87v37.44h-18.87c-26.88,0-48.75,21.87-48.75,48.76c0,26.89,21.87,48.76,48.75,48.76h41.16
				c5.4,0,10.6-0.88,15.46-2.52L1380.29,837.95z"/>
			<polygon class="st0" points="1462.31,717.14 1440.91,717.14 1462.31,733.79 1462.31,852.08 1424.88,852.08 1424.88,679.7 
				1462.31,679.7 			"/>
			<polygon class="st0" points="1415.61,818.41 1415.61,866.63 1380.29,837.95 1348.5,812.14 1290.44,765 1349.83,765 
				1379.36,788.98 1382.22,791.29 			"/>
			<path class="st0" d="M1630.23,766.23c-10.04-12.11-24.76-19.06-40.39-19.06h-67.8c-8.12,0-14.98-6.88-14.98-15.02
				c0-8.14,6.88-15.02,15.02-15.02h62.34V679.7h-62.34c-28.91,0-52.43,23.53-52.43,52.46c0,28.92,23.56,52.45,52.52,52.45h67.69
				c8.14,0,15.02,6.88,15.02,15.02c0,8.28-6.78,15.02-15.11,15.02h-108.48l-26.72,37.44h135.32c20.44,0,38.57-11.56,47.32-30.18
				C1645.97,803.32,1643.29,781.98,1630.23,766.23z"/>
		</g>
		<polygon style="fill:#00274C;stroke:#FFCB05;stroke-width:1;stroke-linejoin:miter;vector-effect:non-scaling-stroke" points="1416.8,679.7 1416.8,791.29 1382.22,791.29 1379.36,788.98 1379.36,717.14 1317.82,717.14
			1317.82,679.7 		"/>
	</g>
	<g>
		<g>
			<g>
				<path class="st1" d="M981.13,936.32v-3.07c0-25.64,19.04-54.82,59.27-54.82c40.23,0,59.43,29.18,59.43,54.82v3.07
					c0,12.9-5.22,27.33-15.82,38.08l11.52,14.13h-25.34l-2.3-2.61c-7.68,3.53-16.89,5.68-27.49,5.68
					C1000.48,991.6,981.13,961.19,981.13,936.32z M1053.3,968.87l-16.43-19.19l21.8-5.99l10.9,13.2c4.45-6.14,6.91-13.82,6.91-21.96
					c0-20.73-14.28-36.09-36.09-36.09c-21.65,0-35.93,15.36-35.93,36.09c0,19.5,13.97,36.09,35.93,36.09
					C1045.16,971.02,1049.46,970.25,1053.3,968.87z"/>
				<path class="st1" d="M1107.51,954.9v-43.15h23.19v45.76c0,8.75,7.37,13.97,17.04,13.97c10.13,0,17.2-5.53,17.2-14.74v-44.99
					h23.34v76.78h-23.03v-9.06c-4.76,5.99-13.21,11.36-23.8,11.36C1118.41,990.83,1107.51,977.47,1107.51,954.9z"/>
				<path class="st1" d="M1195.95,964.26c0-16.89,13.51-26.41,37.01-26.41h15.51c-0.77-5.68-4.61-7.22-12.13-7.22l-31.17-0.15
					v-18.73h26.41c26.57,0,39.62,7.52,39.62,29.33v47.45h-20.27v-3.84c-5.37,4.15-12.59,6.14-21.65,6.14
					C1209.01,990.83,1195.95,981.16,1195.95,964.26z M1248.62,959.2v-4.15h-16.28c-9.06,0-13.51,3.69-13.51,9.21
					c0,5.53,4.45,8.91,13.51,8.91C1239.87,973.17,1248.62,970.25,1248.62,959.2z"/>
				<path class="st1" d="M1280.41,911.75h23.03v9.06c4.76-5.99,13.21-11.36,23.8-11.36c23.03,0,33.94,13.36,33.94,35.93v43.15
					h-23.19v-45.76c0-8.75-7.37-13.97-17.04-13.97c-10.13,0-17.2,5.53-17.2,14.74v44.99h-23.34V911.75z"/>
				<path class="st1" d="M1379.61,960.12V929.1h-13.67v-17.35h13.67v-30.71h23.34v30.71h16.58v17.35h-29.64v1.23
					c5.07,0,13.05,2.76,13.05,9.67v21.65c0,5.22,2.92,7.83,8.91,7.83h6.76v19.04h-5.53
					C1393.27,988.53,1379.61,981.31,1379.61,960.12z"/>
				<path class="st1" d="M1428.74,911.75h23.19v76.78h-23.19V911.75z M1429.2,891.48c0-6.45,4.76-11.67,12.28-11.67
					c7.68,0,12.44,5.22,12.44,11.67c0,6.6-4.76,11.82-12.44,11.82C1433.96,903.3,1429.2,898.08,1429.2,891.48z"/>
				<path class="st1" d="M1475.27,960.12V929.1h-13.67v-17.35h13.67v-30.71h23.34v30.71h16.58v17.35h-29.64v1.23
					c5.07,0,13.05,2.76,13.05,9.67v21.65c0,5.22,2.92,7.83,8.91,7.83h6.76v19.04h-5.53
					C1488.93,988.53,1475.27,981.31,1475.27,960.12z"/>
				<path class="st1" d="M1522.87,964.26c0-16.89,13.51-26.41,37.01-26.41h15.51c-0.77-5.68-4.61-7.22-12.13-7.22l-31.17-0.15
					v-18.73h26.41c26.57,0,39.62,7.52,39.62,29.33v47.45h-20.27v-3.84c-5.37,4.15-12.59,6.14-21.65,6.14
					C1535.92,990.83,1522.87,981.16,1522.87,964.26z M1575.54,959.2v-4.15h-16.28c-9.06,0-13.51,3.69-13.51,9.21
					c0,5.53,4.45,8.91,13.51,8.91C1566.79,973.17,1575.54,970.25,1575.54,959.2z"/>
				<path class="st1" d="M1616.39,960.12V929.1h-13.67v-17.35h13.67v-30.71h23.34v30.71h16.58v17.35h-29.64v1.23
					c5.07,0,13.05,2.76,13.05,9.67v21.65c0,5.22,2.92,7.83,8.91,7.83h6.76v19.04h-5.53
					C1630.05,988.53,1616.39,981.31,1616.39,960.12z"/>
				<path class="st1" d="M1665.52,911.75h23.19v76.78h-23.19V911.75z M1665.98,891.48c0-6.45,4.76-11.67,12.28-11.67
					c7.68,0,12.44,5.22,12.44,11.67c0,6.6-4.76,11.82-12.44,11.82C1670.74,903.3,1665.98,898.08,1665.98,891.48z"/>
				<path class="st1" d="M1695.31,911.75h21.5l20.88,54.21l20.88-54.21h21.5l-29.33,76.78h-26.1L1695.31,911.75z"/>
				<path class="st1" d="M1778.23,951.52v-2.46c0-19.66,15.05-39.93,44.22-39.93c29.33,0,44.38,20.27,44.38,39.93
					c0,2.3,0.15,3.84-0.15,6.14h-64.95c1.69,10.75,9.06,17.04,20.88,17.2c9.52-0.15,16.12-4.45,19.19-11.98h23.95
					c-3.69,16.12-17.97,30.86-43.15,31.02C1792.67,991.29,1778.23,970.72,1778.23,951.52z M1822.46,928.18
					c-9.83,0-16.74,4.45-19.5,12.44h39.16C1839.19,932.63,1832.44,928.18,1822.46,928.18z"/>
			</g>
			<g>
				<path class="st0" d="M981.13,1012.57h5.78v26.96h-5.78V1012.57z"/>
				<path class="st0" d="M1016.56,1012.57h7.55l12.29,19.76v-19.76h5.66v26.96h-7.66l-12.13-19.57v19.57h-5.7V1012.57z"/>
				<path class="st0" d="M1071.72,1012.57h5.97l7.9,21.61l7.28-21.61h5.89l-9.32,26.96h-7.7L1071.72,1012.57z"/>
				<path class="st0" d="M1128.41,1012.57h18.37v5.05h-12.6v5.93h11.82v4.93h-11.82v6.2h12.98v4.85h-18.76V1012.57z"/>
				<path class="st0" d="M1176.83,1030.25h5.85c0,3.39,2.08,4.89,5.7,4.89c3.97,0,5.85-1.66,5.85-3.74c0-1.39-1.43-2.5-4.62-2.77
					l-2.97-0.23c-5.2-0.42-8.78-3.31-8.78-7.78c0-5.24,4.35-8.71,10.55-8.71c6.51,0,11.05,3.85,10.44,9.82h-5.89
					c0-2-0.39-4.7-4.55-4.7c-3.2,0-4.78,1.62-4.78,3.58c0,1.31,1.12,2.43,3.51,2.62l2.93,0.23c6.2,0.46,9.94,3.43,9.94,7.93
					c0,5.12-4.58,8.9-11.63,8.9C1180.79,1040.3,1176.67,1036.1,1176.83,1030.25z"/>
				<path class="st0" d="M1236.56,1017.65h-8.09v-5.08h21.99v5.08h-8.09v21.88h-5.82V1017.65z"/>
				<path class="st0" d="M1280.13,1012.57h6.59l7.43,15.79l7.43-15.79h6.62v26.96h-5.78v-16.72l-5.47,11.67h-5.85l-5.16-11.63v16.68
					h-5.82V1012.57z"/>
				<path class="st0" d="M1337.86,1012.57h18.37v5.05h-12.6v5.93h11.82v4.93h-11.82v6.2h12.98v4.85h-18.76V1012.57z"/>
				<path class="st0" d="M1386.27,1012.57h7.55l12.29,19.76v-19.76h5.66v26.96h-7.66l-12.13-19.57v19.57h-5.7V1012.57z"/>
				<path class="st0" d="M1449.52,1017.65h-8.09v-5.08h21.99v5.08h-8.09v21.88h-5.82V1017.65z"/>
				<path class="st0" d="M1534.29,1030.25h5.85c0,3.39,2.08,4.89,5.7,4.89c3.97,0,5.85-1.66,5.85-3.74c0-1.39-1.42-2.5-4.62-2.77
					l-2.97-0.23c-5.2-0.42-8.78-3.31-8.78-7.78c0-5.24,4.35-8.71,10.55-8.71c6.51,0,11.05,3.85,10.44,9.82h-5.89
					c0-2-0.39-4.7-4.55-4.7c-3.2,0-4.78,1.62-4.78,3.58c0,1.31,1.12,2.43,3.51,2.62l2.93,0.23c6.2,0.46,9.94,3.43,9.94,7.93
					c0,5.12-4.58,8.9-11.63,8.9C1538.26,1040.3,1534.14,1036.1,1534.29,1030.25z"/>
				<path class="st0" d="M1587.13,1026.43v-0.77c0-6.43,4.78-13.75,14.87-13.75c10.09,0,14.91,7.32,14.91,13.75v0.77
					c0,6.24-4.89,13.87-14.91,13.87C1591.99,1040.3,1587.13,1032.67,1587.13,1026.43z M1611.05,1026.09c0-5.2-3.58-9.05-9.05-9.05
					c-5.43,0-9.01,3.85-9.01,9.05c0,4.89,3.51,9.05,9.01,9.05C1607.55,1035.14,1611.05,1030.98,1611.05,1026.09z"/>
				<path class="st0" d="M1646.56,1026.43v-0.77c0-6.43,4.78-13.75,14.87-13.75c8.86,0,13.67,5.66,14.67,11.36h-6.01
					c-1.04-3.74-4.24-6.24-8.67-6.24c-5.43,0-9.01,3.85-9.01,9.05c0,4.89,3.51,9.05,9.01,9.05c4.43,0,7.59-2.66,8.63-6.28h6.05
					c-1.08,5.62-5.93,11.44-14.67,11.44C1651.42,1040.3,1646.56,1032.67,1646.56,1026.43z"/>
				<path class="st0" d="M1705.76,1012.57h5.78v26.96h-5.78V1012.57z"/>
				<path class="st0" d="M1741.2,1012.57h18.37v5.05h-12.59v5.93h11.82v4.93h-11.82v6.2h12.98v4.85h-18.76V1012.57z"/>
				<path class="st0" d="M1797.7,1017.65h-8.09v-5.08h21.99v5.08h-8.09v21.88h-5.82V1017.65z"/>
				<path class="st0" d="M1851.35,1029.98l-10.09-17.41h6.16l6.7,11.86l6.55-11.86h6.2l-9.82,17.41v9.55h-5.7V1029.98z"/>
			</g>
		</g>
	</g>
</g>
</svg>
