<svg xmlns="http://www.w3.org/2000/svg" viewBox="1140 670 530 210">
<g>
&#x9;<path fill="#FFFFFF" d="M1380.29,837.95c-13.58,8.95-29.8,14.15-47.24,14.15h-41.16c-47.53,0-86.2-38.67-86.2-86.2c0-47.53,38.67-86.2,86.2-86.2h18.87v37.44h-18.87c-26.88,0-48.75,21.87-48.75,48.76c0,26.89,21.87,48.76,48.75,48.76h41.16c5.4,0,10.6-0.88,15.46-2.52L1380.29,837.95z"></path>
&#x9;<polygon fill="#FFFFFF" points="1462.31,717.14 1440.91,717.14 1462.31,733.79 1462.31,852.08 1424.88,852.08 1424.88,679.7 1462.31,679.7"></polygon>
&#x9;<polygon fill="#FFFFFF" points="1415.61,818.41 1415.61,866.63 1380.29,837.95 1348.5,812.14 1290.44,765 1349.83,765 1379.36,788.98 1382.22,791.29"></polygon>
&#x9;<path fill="#FFFFFF" d="M1630.23,766.23c-10.04-12.11-24.76-19.06-40.39-19.06h-67.8c-8.12,0-14.98-6.88-14.98-15.02c0-8.14,6.88-15.02,15.02-15.02h62.34V679.7h-62.34c-28.91,0-52.43,23.53-52.43,52.46c0,28.92,23.56,52.45,52.52,52.45h67.69c8.14,0,15.02,6.88,15.02,15.02c0,8.28-6.78,15.02-15.11,15.02h-108.48l-26.72,37.44h135.32c20.44,0,38.57-11.56,47.32-30.18C1645.97,803.32,1643.29,781.98,1630.23,766.23z"></path>
</g>
<polygon style="fill:#00274C;stroke:#FFCB05;stroke-width:1;stroke-linejoin:miter;vector-effect:non-scaling-stroke" points="1416.8,679.7 1416.8,791.29 1382.22,791.29 1379.36,788.98 1379.36,717.14 1317.82,717.14 1317.82,679.7"></polygon>
</svg>